<svg width="20" height="21" viewBox="0 0 20 21" fill="none" xmlns="http://www.w3.org/2000/svg">
<path d="M7.7273 18.8168C8.1457 18.8168 8.48488 18.4792 8.48488 18.0628C8.48488 17.6464 8.1457 17.3088 7.7273 17.3088C7.3089 17.3088 6.96973 17.6464 6.96973 18.0628C6.96973 18.4792 7.3089 18.8168 7.7273 18.8168Z" fill="black" stroke="black" stroke-width="1.66667" stroke-linecap="round" stroke-linejoin="round"/>
<path d="M16.0603 18.8168C16.4787 18.8168 16.8179 18.4792 16.8179 18.0628C16.8179 17.6464 16.4787 17.3088 16.0603 17.3088C15.6419 17.3088 15.3027 17.6464 15.3027 18.0628C15.3027 18.4792 15.6419 18.8168 16.0603 18.8168Z" fill="black" stroke="black" stroke-width="1.66667" stroke-linecap="round" stroke-linejoin="round"/>
<path d="M1.6665 2.9834H4.69681L6.72711 13.079C6.79639 13.4262 6.98613 13.738 7.26313 13.9599C7.54013 14.1818 7.88673 14.2997 8.24226 14.2929H15.6059C15.9614 14.2997 16.308 14.1818 16.585 13.9599C16.862 13.738 17.0518 13.4262 17.121 13.079L18.3332 6.75324H5.45438" stroke="black" stroke-width="1.66667" stroke-linecap="round" stroke-linejoin="round"/>
</svg>
