<svg width="18" height="19" viewBox="0 0 18 19" fill="none" xmlns="http://www.w3.org/2000/svg">
<path fill-rule="evenodd" clip-rule="evenodd" d="M8.69019 0.482422C9.85196 0.523916 11.0552 0.523916 12.217 0.565406C13.2543 0.606895 14.2086 0.772862 15.1214 1.31225C16.2832 2.0176 16.9885 3.05489 17.2375 4.38261C17.3619 5.17095 17.4034 6.00078 17.4449 6.78911C17.4864 8.53175 17.4449 10.2744 17.4449 12.017C17.4449 12.9298 17.4034 13.8426 17.113 14.714C16.5321 16.4151 15.3289 17.4524 13.5862 17.7843C12.7979 17.9503 11.968 17.9503 11.1797 17.9918C9.43704 18.0333 7.73588 17.9918 5.99323 17.9918C5.08042 17.9918 4.1676 17.9503 3.29628 17.6599C1.59512 17.079 0.557832 15.8757 0.225897 14.1331C0.0599339 13.3448 0.0599339 12.5149 0.0184412 11.7266C-0.0230515 9.98395 0.0184412 8.24131 0.0184412 6.49868C0.0184412 5.58587 0.0599339 4.67306 0.350373 3.80173C0.931259 2.10058 2.13451 1.06331 3.87716 0.731372C4.66551 0.565411 5.49534 0.565411 6.28368 0.523916C7.07202 0.482422 7.86035 0.482422 8.69019 0.482422ZM15.866 9.07061C15.866 9.07061 15.8245 9.07061 15.866 9.07061C15.8245 8.36525 15.8245 7.70139 15.8245 6.99603C15.8245 6.33218 15.7831 5.66831 15.7001 5.00445C15.5341 3.51076 14.6628 2.51496 13.2106 2.22453C12.4637 2.05856 11.6339 2.05856 10.887 2.05856C9.39335 2.01707 7.94114 2.01707 6.44745 2.05856C5.7006 2.05856 4.95375 2.10004 4.24839 2.22453C3.00364 2.43198 2.13232 3.13734 1.75889 4.38208C1.63442 4.79699 1.59293 5.2119 1.55143 5.62682C1.50994 7.20349 1.50994 8.78016 1.50994 10.3568C1.50994 11.3526 1.55143 12.3899 1.63442 13.3857C1.75889 14.8794 2.67171 15.9167 4.16541 16.1656C4.91225 16.2901 5.7006 16.3316 6.48894 16.3316C7.94114 16.3731 9.39335 16.3316 10.887 16.3316C11.5509 16.3316 12.2148 16.2901 12.8787 16.2071C13.501 16.1656 14.0819 15.9582 14.5798 15.5433C15.4096 14.8794 15.7001 14.0081 15.7416 13.0123C15.8245 11.7675 15.8245 10.4398 15.866 9.07061Z" fill="#081420"/>
<path fill-rule="evenodd" clip-rule="evenodd" d="M13.1712 9.2369C13.1712 11.7264 11.1796 13.718 8.69008 13.718C6.20058 13.718 4.20898 11.7264 4.20898 9.19542C4.20898 6.74743 6.24207 4.75586 8.73157 4.75586C11.1796 4.75586 13.1712 6.74743 13.1712 9.2369ZM8.69052 12.1408C10.2672 12.1408 11.5949 10.8131 11.5949 9.23642C11.5949 7.65975 10.2672 6.33203 8.69052 6.33203C7.07235 6.33203 5.7861 7.65975 5.7861 9.23642C5.74461 10.8131 7.07235 12.1408 8.69052 12.1408Z" fill="#081420"/>
<path d="M14.3739 4.54901C14.3739 5.12989 13.9175 5.62779 13.3366 5.62779C12.7557 5.62779 12.2578 5.12989 12.2993 4.54901C12.2993 3.96813 12.7557 3.51172 13.3366 3.51172C13.9175 3.51172 14.3739 3.96812 14.3739 4.54901Z" fill="#081420"/>
</svg>
