<svg width="19" height="16" viewBox="0 0 19 16" fill="none" xmlns="http://www.w3.org/2000/svg">
<path fill-rule="evenodd" clip-rule="evenodd" d="M18.2993 2.61437C17.6419 2.90201 16.9844 3.10746 16.2448 3.18964C16.9844 2.73765 17.5597 2.03912 17.8062 1.21732C17.1077 1.62822 16.327 1.91585 15.5463 2.0802C14.8888 1.38167 13.9437 0.929688 12.9165 0.929688C10.9441 0.929688 9.34162 2.5322 9.34162 4.50452C9.34162 4.79215 9.38271 5.07977 9.42381 5.32632C6.42422 5.16196 3.79444 3.76489 2.02755 1.58713C1.69883 2.1213 1.53447 2.73765 1.53447 3.39509C1.53447 4.62779 2.15083 5.73722 3.13699 6.39465C2.56173 6.39465 1.98647 6.2303 1.49338 5.94266V5.98375C1.49338 7.70954 2.72609 9.18877 4.36971 9.51749C4.08207 9.59967 3.75335 9.64076 3.42462 9.64076C3.17808 9.64076 2.97263 9.59967 2.76718 9.55859C3.21917 10.9967 4.53407 12.024 6.13658 12.0651C4.90388 13.0101 3.38353 13.5854 1.69883 13.5854C1.4112 13.5854 1.12357 13.5854 0.835938 13.5443C2.43846 14.5716 4.28752 15.1468 6.34204 15.1468C12.9576 15.1468 16.5324 9.68185 16.5324 4.95651C16.5324 4.79215 16.5324 4.62779 16.5324 4.50452C17.231 3.97035 17.8473 3.3129 18.2993 2.61437Z" fill="#FE5435"/>
</svg>
